<svg width="6" height="12" viewBox="0 0 6 12" fill="none" xmlns="http://www.w3.org/2000/svg">
<path d="M0.156866 0.931541L4.76787 5.61654C4.86899 5.71876 4.92572 5.85675 4.92572 6.00054C4.92572 6.14433 4.86899 6.28232 4.76787 6.38454L0.157866 11.0695C0.0567903 11.1724 0.000154001 11.3108 0.000153995 11.455C0.000153988 11.5992 0.0567903 11.7377 0.157866 11.8405C0.207243 11.8912 0.266259 11.9314 0.331436 11.9589C0.396613 11.9864 0.466632 12.0006 0.537366 12.0006C0.608101 12.0006 0.678119 11.9864 0.743296 11.9589C0.808473 11.9314 0.867489 11.8912 0.916866 11.8405L5.52687 7.15654C5.82979 6.84802 5.99951 6.43292 5.99951 6.00054C5.99951 5.56816 5.82979 5.15306 5.52687 4.84454L0.916866 0.160541C0.867474 0.109739 0.808396 0.0693567 0.743127 0.0417819C0.677857 0.0142072 0.607721 -2.35683e-07 0.536866 -2.3878e-07C0.466011 -2.41877e-07 0.395876 0.0142072 0.330606 0.0417819C0.265337 0.0693566 0.206259 0.109739 0.156866 0.160541C0.0557904 0.263396 -0.000845927 0.401834 -0.000845933 0.546041C-0.000845939 0.690247 0.0557904 0.828685 0.156866 0.931541Z" fill="#222222"/>
</svg>
