<svg width="28" height="19" viewBox="0 0 28 19" fill="none" xmlns="http://www.w3.org/2000/svg">
<path d="M2.45945 18.25C2.04096 18.25 1.69017 18.1102 1.40707 17.8307C1.12397 17.5512 0.982422 17.2049 0.982422 16.7917C0.982422 16.3785 1.12397 16.0321 1.40707 15.7526C1.69017 15.4731 2.04096 15.3333 2.45945 15.3333H26.0919C26.5104 15.3333 26.8612 15.4731 27.1443 15.7526C27.4274 16.0321 27.569 16.3785 27.569 16.7917C27.569 17.2049 27.4274 17.5512 27.1443 17.8307C26.8612 18.1102 26.5104 18.25 26.0919 18.25H2.45945ZM2.45945 10.9583C2.04096 10.9583 1.69017 10.8186 1.40707 10.5391C1.12397 10.2595 0.982422 9.91319 0.982422 9.5C0.982422 9.08681 1.12397 8.74045 1.40707 8.46094C1.69017 8.18142 2.04096 8.04167 2.45945 8.04167H26.0919C26.5104 8.04167 26.8612 8.18142 27.1443 8.46094C27.4274 8.74045 27.569 9.08681 27.569 9.5C27.569 9.91319 27.4274 10.2595 27.1443 10.5391C26.8612 10.8186 26.5104 10.9583 26.0919 10.9583H2.45945ZM2.45945 3.66667C2.04096 3.66667 1.69017 3.52691 1.40707 3.2474C1.12397 2.96788 0.982422 2.62153 0.982422 2.20833C0.982422 1.79514 1.12397 1.44878 1.40707 1.16927C1.69017 0.889757 2.04096 0.75 2.45945 0.75H26.0919C26.5104 0.75 26.8612 0.889757 27.1443 1.16927C27.4274 1.44878 27.569 1.79514 27.569 2.20833C27.569 2.62153 27.4274 2.96788 27.1443 3.2474C26.8612 3.52691 26.5104 3.66667 26.0919 3.66667H2.45945Z" fill="black"/>
</svg>
