<svg width="22" height="25" viewBox="0 0 22 25" fill="none" xmlns="http://www.w3.org/2000/svg">
<path d="M2.25 24.666C1.78333 24.666 1.375 24.491 1.025 24.141C0.675 23.791 0.5 23.3827 0.5 22.916V7.45768C0.5 6.99102 0.675 6.58268 1.025 6.23268C1.375 5.88268 1.78333 5.70768 2.25 5.70768H5.45833C5.45833 4.17157 5.97361 2.86393 7.00417 1.78477C8.03472 0.705599 9.31806 0.166016 10.8542 0.166016C12.3903 0.166016 13.7222 0.705599 14.85 1.78477C15.9778 2.86393 16.5417 4.17157 16.5417 5.70768H19.75C20.2167 5.70768 20.625 5.88268 20.975 6.23268C21.325 6.58268 21.5 6.99102 21.5 7.45768V22.916C21.5 23.3827 21.325 23.791 20.975 24.141C20.625 24.491 20.2167 24.666 19.75 24.666H2.25ZM7.20833 5.70768H14.7917C14.7917 4.63824 14.4271 3.73893 13.6979 3.00977C12.9688 2.2806 12.0694 1.91602 11 1.91602C9.93056 1.91602 9.03125 2.2806 8.30208 3.00977C7.57292 3.73893 7.20833 4.63824 7.20833 5.70768ZM11 14.4577C12.4194 14.4577 13.7125 13.957 14.8792 12.9556C16.0458 11.9542 16.6292 10.8313 16.6292 9.58685C16.6292 9.37296 16.5417 9.18338 16.3667 9.0181C16.1917 8.85282 15.9778 8.77018 15.725 8.77018C15.5111 8.77018 15.3215 8.8431 15.1562 8.98893C14.991 9.13477 14.8889 9.32435 14.85 9.55768C14.6556 10.4716 14.1938 11.225 13.4646 11.8181C12.7354 12.4112 11.9139 12.7077 11 12.7077C10.0861 12.7077 9.26458 12.4112 8.53542 11.8181C7.80625 11.225 7.34444 10.4716 7.15 9.55768C7.11111 9.32435 7.00417 9.13477 6.82917 8.98893C6.65417 8.8431 6.45972 8.77018 6.24583 8.77018C6.0125 8.77018 5.80833 8.85282 5.63333 9.0181C5.45833 9.18338 5.37083 9.37296 5.37083 9.58685C5.37083 10.8313 5.94931 11.9542 7.10625 12.9556C8.26319 13.957 9.56111 14.4577 11 14.4577Z" fill="#222222"/>
</svg>
