<svg width="22" height="18" viewBox="0 0 22 18" fill="none" xmlns="http://www.w3.org/2000/svg">
<path d="M9.71378 17.338C9.83668 17.215 9.90571 17.0482 9.90571 16.8743C9.90571 16.7003 9.83668 16.5336 9.71378 16.4105L2.95988 9.65551L20.625 9.65551C20.7991 9.65551 20.966 9.58636 21.0891 9.46329C21.2121 9.34022 21.2813 9.1733 21.2813 8.99926C21.2813 8.82521 21.2121 8.65829 21.0891 8.53522C20.966 8.41215 20.7991 8.343 20.625 8.343L2.95988 8.34301L9.71378 1.58801C9.8297 1.4636 9.89281 1.29906 9.88981 1.12905C9.88681 0.959034 9.81794 0.796822 9.6977 0.676586C9.57747 0.556349 9.41525 0.487477 9.24524 0.484477C9.07523 0.481477 8.91069 0.544585 8.78628 0.660505L0.911283 8.53551C0.788389 8.65855 0.719361 8.82535 0.719361 8.99926C0.719361 9.17316 0.788389 9.33996 0.911283 9.46301L8.78628 17.338C8.90933 17.4609 9.07613 17.5299 9.25003 17.5299C9.42394 17.5299 9.59074 17.4609 9.71378 17.338Z" fill="#222222"/>
</svg>
