<svg width="22" height="18" viewBox="0 0 22 18" fill="none" xmlns="http://www.w3.org/2000/svg">
<path d="M12.2862 17.338C12.1633 17.215 12.0943 17.0482 12.0943 16.8743C12.0943 16.7003 12.1633 16.5336 12.2862 16.4105L19.0401 9.65551L1.37497 9.65551C1.20092 9.65551 1.034 9.58636 0.910926 9.46329C0.787857 9.34022 0.718717 9.1733 0.718717 8.99926C0.718717 8.82521 0.787857 8.65829 0.910926 8.53522C1.034 8.41215 1.20092 8.343 1.37497 8.343L19.0401 8.34301L12.2862 1.58801C12.1703 1.4636 12.1072 1.29906 12.1102 1.12905C12.1132 0.959034 12.1821 0.796822 12.3023 0.676586C12.4225 0.556349 12.5847 0.487477 12.7548 0.484477C12.9248 0.481477 13.0893 0.544585 13.2137 0.660505L21.0887 8.53551C21.2116 8.65855 21.2806 8.82535 21.2806 8.99926C21.2806 9.17316 21.2116 9.33996 21.0887 9.46301L13.2137 17.338C13.0907 17.4609 12.9239 17.5299 12.75 17.5299C12.5761 17.5299 12.4093 17.4609 12.2862 17.338Z" fill="#222222"/>
</svg>
