<svg width="201" height="32" viewBox="0 0 201 32" fill="none" xmlns="http://www.w3.org/2000/svg">
<path d="M16.6277 3.37316L10.9528 3.25411C5.15895 3.25411 2.262 4.524 2.262 7.06379C2.262 7.72519 2.50011 8.26755 2.97632 8.69084C3.47898 9.08769 4.21975 9.28611 5.19863 9.28611C6.17751 9.28611 7.46063 8.83635 9.048 7.93684L9.64326 8.96863C8.82312 9.84169 7.89716 10.5295 6.86537 11.0322C5.83358 11.5349 4.80179 11.7862 3.77 11.7862C2.73821 11.7862 1.85193 11.4423 1.11116 10.7544C0.370386 10.0666 0 9.20674 0 8.17495C0 6.08491 1.12439 4.25944 3.37316 2.69853C5.64839 1.13761 8.7173 0.357159 12.5799 0.357159C12.8974 0.357159 14.035 0.410071 15.9927 0.515896C17.9505 0.621721 19.4982 0.674633 20.6358 0.674633C21.7734 0.674633 22.8184 0.502667 23.7708 0.158737C24.1412 0.0529124 24.3661 0 24.4455 0C24.8159 0 25.0011 0.238106 25.0011 0.714316C25.0011 1.40218 24.3926 2.0239 23.1756 2.57947C21.9851 3.13505 20.6093 3.41284 19.0484 3.41284C17.3023 5.10604 15.7679 8.06912 14.4451 12.3021C13.1487 16.5086 11.5878 19.7231 9.76232 21.9454C7.9633 24.1412 5.82035 25.2392 3.33347 25.2392C2.3546 25.2392 1.42863 24.9217 0.555579 24.2867L1.46832 22.7787C1.78579 22.9375 2.14295 23.083 2.53979 23.2153L3.09537 23.2946C3.22765 23.3211 3.42607 23.3343 3.69063 23.3343C5.01344 23.3343 6.19074 22.6994 7.22253 21.4295C8.28077 20.1596 9.3787 17.7653 10.5163 14.2466C11.6804 10.7015 12.5799 8.36014 13.2148 7.22253C13.8762 6.05846 15.0139 4.77534 16.6277 3.37316Z" fill="#222222"/>
<path d="M101.71 25.3978L106.205 19.2208C105.18 19.0661 104.349 18.6214 103.711 17.8868C103.092 17.1328 102.783 16.1081 102.783 14.8128C102.783 13.9428 102.986 13.1694 103.392 12.4928C103.798 11.8161 104.368 11.2748 105.103 10.8688C105.857 10.4628 106.736 10.2598 107.742 10.2598H113.513V25.3978H111.541V19.5398H108.177L103.914 25.3978H101.71ZM107.713 18.0318H111.541V11.8258H108.061C107.055 11.8258 106.253 12.1158 105.654 12.6958C105.054 13.2564 104.755 13.9718 104.755 14.8418C104.755 15.7311 104.996 16.4851 105.48 17.1038C105.982 17.7224 106.727 18.0318 107.713 18.0318Z" fill="#222222"/>
<path d="M92.345 25.6873C91.2623 25.6873 90.257 25.4843 89.329 25.0783C88.401 24.653 87.5987 24.0827 86.922 23.3673C86.2453 22.6327 85.7137 21.7917 85.327 20.8443C84.9597 19.897 84.776 18.882 84.776 17.7993C84.776 16.388 85.095 15.0927 85.733 13.9133C86.3903 12.734 87.2893 11.7963 88.43 11.1003C89.5707 10.385 90.866 10.0273 92.316 10.0273C93.8047 10.0273 95.1 10.385 96.202 11.1003C97.3233 11.8157 98.203 12.763 98.841 13.9423C99.479 15.1023 99.798 16.3783 99.798 17.7703C99.798 17.925 99.798 18.0797 99.798 18.2343C99.798 18.3697 99.7883 18.476 99.769 18.5533H86.835C86.9317 19.636 87.2313 20.6027 87.734 21.4533C88.256 22.2847 88.923 22.9517 89.735 23.4543C90.5663 23.9377 91.4653 24.1793 92.432 24.1793C93.418 24.1793 94.346 23.928 95.216 23.4253C96.1053 22.9227 96.724 22.2653 97.072 21.4533L98.783 21.9173C98.4737 22.6327 98 23.2803 97.362 23.8603C96.724 24.4403 95.97 24.8947 95.1 25.2233C94.2493 25.5327 93.331 25.6873 92.345 25.6873ZM86.777 17.1323H97.942C97.8647 16.0303 97.565 15.0637 97.043 14.2323C96.5403 13.401 95.8733 12.7533 95.042 12.2893C94.23 11.806 93.331 11.5643 92.345 11.5643C91.359 11.5643 90.46 11.806 89.648 12.2893C88.836 12.7533 88.169 13.4107 87.647 14.2613C87.1443 15.0927 86.8543 16.0497 86.777 17.1323Z" fill="#222222"/>
<path d="M75.6356 25.6873C74.379 25.6873 73.248 25.3587 72.2426 24.7013C71.2566 24.044 70.4736 23.232 69.8936 22.2653V31.5743H67.9216V10.2883H69.6906V13.2173C70.29 12.27 71.0923 11.5063 72.0976 10.9263C73.103 10.327 74.176 10.0273 75.3166 10.0273C76.3606 10.0273 77.3176 10.2497 78.1876 10.6943C79.0576 11.1197 79.8116 11.6997 80.4496 12.4343C81.0876 13.169 81.5806 14.01 81.9286 14.9573C82.296 15.8853 82.4796 16.852 82.4796 17.8573C82.4796 19.2687 82.1896 20.5737 81.6096 21.7723C81.049 22.9517 80.2563 23.899 79.2316 24.6143C78.207 25.3297 77.0083 25.6873 75.6356 25.6873ZM75.0846 23.9473C75.916 23.9473 76.6603 23.783 77.3176 23.4543C77.975 23.1063 78.5356 22.6423 78.9996 22.0623C79.483 21.4823 79.8503 20.8347 80.1016 20.1193C80.353 19.3847 80.4786 18.6307 80.4786 17.8573C80.4786 17.0453 80.3336 16.272 80.0436 15.5373C79.773 14.8027 79.3766 14.155 78.8546 13.5943C78.3326 13.0337 77.7333 12.589 77.0566 12.2603C76.38 11.9317 75.6453 11.7673 74.8526 11.7673C74.35 11.7673 73.828 11.864 73.2866 12.0573C72.7453 12.2507 72.2233 12.531 71.7206 12.8983C71.2373 13.2463 70.8313 13.6427 70.5026 14.0873C70.174 14.532 69.971 15.0057 69.8936 15.5083V20.1483C70.203 20.8637 70.6186 21.5113 71.1406 22.0913C71.6626 22.652 72.262 23.1063 72.9386 23.4543C73.6346 23.783 74.35 23.9473 75.0846 23.9473Z" fill="#222222"/>
<path d="M57.4261 25.6873C56.3434 25.6873 55.3381 25.4843 54.4101 25.0783C53.4821 24.653 52.6797 24.0827 52.0031 23.3673C51.3264 22.6327 50.7947 21.7917 50.4081 20.8443C50.0407 19.897 49.8571 18.882 49.8571 17.7993C49.8571 16.388 50.1761 15.0927 50.8141 13.9133C51.4714 12.734 52.3704 11.7963 53.5111 11.1003C54.6517 10.385 55.9471 10.0273 57.3971 10.0273C58.8857 10.0273 60.1811 10.385 61.2831 11.1003C62.4044 11.8157 63.2841 12.763 63.9221 13.9423C64.5601 15.1023 64.8791 16.3783 64.8791 17.7703C64.8791 17.925 64.8791 18.0797 64.8791 18.2343C64.8791 18.3697 64.8694 18.476 64.8501 18.5533H51.9161C52.0127 19.636 52.3124 20.6027 52.8151 21.4533C53.3371 22.2847 54.0041 22.9517 54.8161 23.4543C55.6474 23.9377 56.5464 24.1793 57.5131 24.1793C58.4991 24.1793 59.4271 23.928 60.2971 23.4253C61.1864 22.9227 61.8051 22.2653 62.1531 21.4533L63.8641 21.9173C63.5547 22.6327 63.0811 23.2803 62.4431 23.8603C61.8051 24.4403 61.0511 24.8947 60.1811 25.2233C59.3304 25.5327 58.4121 25.6873 57.4261 25.6873ZM51.8581 17.1323H63.0231C62.9457 16.0303 62.6461 15.0637 62.1241 14.2323C61.6214 13.401 60.9544 12.7533 60.1231 12.2893C59.3111 11.806 58.4121 11.5643 57.4261 11.5643C56.4401 11.5643 55.5411 11.806 54.7291 12.2893C53.9171 12.7533 53.2501 13.4107 52.7281 14.2613C52.2254 15.0927 51.9354 16.0497 51.8581 17.1323Z" fill="#222222"/>
<path d="M32.9403 25.4851V23.6871C33.4623 23.6871 33.9263 23.5517 34.3323 23.2811C34.7383 22.9911 35.096 22.5077 35.4053 21.8311C35.734 21.1544 35.995 20.2264 36.1883 19.0471C36.3816 17.8484 36.5073 16.3307 36.5653 14.4941L36.7393 10.2891H46.5413V25.3981H44.5693V12.0581H38.4793L38.4213 14.6681C38.344 16.7561 38.1796 18.5057 37.9283 19.9171C37.677 21.3091 37.3193 22.4111 36.8553 23.2231C36.4106 24.0351 35.8596 24.6151 35.2023 24.9631C34.545 25.3111 33.791 25.4851 32.9403 25.4851Z" fill="#222222"/>
<path d="M17.3696 21.0473C17.3696 20.1 17.6403 19.288 18.1816 18.6113C18.723 17.9153 19.4673 17.3837 20.4146 17.0163C21.3813 16.6297 22.493 16.4363 23.7496 16.4363C24.4843 16.4363 25.248 16.4943 26.0406 16.6103C26.8333 16.7263 27.539 16.9003 28.1576 17.1323V15.8563C28.1576 14.5803 27.7806 13.5653 27.0266 12.8113C26.2726 12.0573 25.2286 11.6803 23.8946 11.6803C23.0826 11.6803 22.2803 11.835 21.4876 12.1443C20.7143 12.4343 19.9023 12.8693 19.0516 13.4493L18.2976 12.0573C19.2836 11.3807 20.2503 10.878 21.1976 10.5493C22.145 10.2013 23.1116 10.0273 24.0976 10.0273C25.9536 10.0273 27.423 10.559 28.5056 11.6223C29.5883 12.6857 30.1296 14.155 30.1296 16.0303V23.0193C30.1296 23.29 30.1876 23.493 30.3036 23.6283C30.4196 23.7443 30.6033 23.812 30.8546 23.8313V25.3973C30.642 25.4167 30.4583 25.436 30.3036 25.4553C30.149 25.4747 30.033 25.4747 29.9556 25.4553C29.4723 25.436 29.105 25.2813 28.8536 24.9913C28.6023 24.7013 28.467 24.392 28.4476 24.0633L28.4186 22.9613C27.742 23.8313 26.8623 24.508 25.7796 24.9913C24.697 25.4553 23.595 25.6873 22.4736 25.6873C21.507 25.6873 20.6273 25.4843 19.8346 25.0783C19.0613 24.653 18.4523 24.0923 18.0076 23.3963C17.5823 22.681 17.3696 21.898 17.3696 21.0473ZM27.4906 22.2073C27.7033 21.9367 27.8676 21.6757 27.9836 21.4243C28.0996 21.173 28.1576 20.9507 28.1576 20.7573V18.5533C27.5003 18.302 26.814 18.1087 26.0986 17.9733C25.4026 17.838 24.697 17.7703 23.9816 17.7703C22.5703 17.7703 21.4296 18.0507 20.5596 18.6113C19.6896 19.172 19.2546 19.9357 19.2546 20.9023C19.2546 21.463 19.3996 21.9947 19.6896 22.4973C19.9796 22.9807 20.405 23.3867 20.9656 23.7153C21.5263 24.0247 22.1836 24.1793 22.9376 24.1793C23.885 24.1793 24.7646 23.9957 25.5766 23.6283C26.408 23.261 27.046 22.7873 27.4906 22.2073Z" fill="#222222"/>
<path d="M187.696 25.3974V8.35742H194.92C195.704 8.35742 196.424 8.51742 197.08 8.83742C197.736 9.15742 198.304 9.58942 198.784 10.1334C199.28 10.6774 199.664 11.2854 199.936 11.9574C200.208 12.6294 200.344 13.3174 200.344 14.0214C200.344 14.9814 200.12 15.8934 199.672 16.7574C199.224 17.6214 198.608 18.3254 197.824 18.8694C197.04 19.4134 196.112 19.6854 195.04 19.6854H191.008V25.3974H187.696ZM191.008 16.7814H194.848C195.248 16.7814 195.608 16.6694 195.928 16.4454C196.248 16.2214 196.504 15.9014 196.696 15.4854C196.888 15.0534 196.984 14.5654 196.984 14.0214C196.984 13.4294 196.872 12.9254 196.648 12.5094C196.44 12.0934 196.16 11.7814 195.808 11.5734C195.472 11.3654 195.104 11.2614 194.704 11.2614H191.008V16.7814Z" fill="#222222"/>
<path d="M176.828 25.5183C175.58 25.5183 174.444 25.2783 173.42 24.7983C172.412 24.3183 171.54 23.6703 170.804 22.8543C170.084 22.0223 169.524 21.0943 169.124 20.0703C168.724 19.0303 168.524 17.9663 168.524 16.8783C168.524 15.7423 168.732 14.6623 169.148 13.6383C169.58 12.5983 170.164 11.6783 170.9 10.8783C171.652 10.0623 172.532 9.42228 173.54 8.95828C174.564 8.47828 175.684 8.23828 176.9 8.23828C178.132 8.23828 179.252 8.48628 180.26 8.98228C181.284 9.47828 182.156 10.1423 182.876 10.9743C183.596 11.8063 184.156 12.7343 184.556 13.7583C184.956 14.7823 185.156 15.8383 185.156 16.9263C185.156 18.0463 184.948 19.1263 184.532 20.1663C184.116 21.1903 183.532 22.1103 182.78 22.9263C182.044 23.7263 181.164 24.3583 180.14 24.8223C179.132 25.2863 178.028 25.5183 176.828 25.5183ZM171.884 16.8783C171.884 17.6143 171.996 18.3263 172.22 19.0143C172.444 19.7023 172.764 20.3183 173.18 20.8623C173.612 21.3903 174.132 21.8143 174.74 22.1343C175.364 22.4383 176.068 22.5903 176.852 22.5903C177.652 22.5903 178.364 22.4303 178.988 22.1103C179.612 21.7743 180.132 21.3343 180.548 20.7903C180.964 20.2303 181.276 19.6143 181.484 18.9423C181.708 18.2543 181.82 17.5663 181.82 16.8783C181.82 16.1423 181.7 15.4383 181.46 14.7663C181.236 14.0783 180.908 13.4703 180.476 12.9423C180.06 12.3983 179.54 11.9743 178.916 11.6703C178.308 11.3503 177.62 11.1903 176.852 11.1903C176.036 11.1903 175.316 11.3583 174.692 11.6943C174.084 12.0143 173.572 12.4463 173.156 12.9903C172.74 13.5343 172.42 14.1423 172.196 14.8143C171.988 15.4863 171.884 16.1743 171.884 16.8783Z" fill="#222222"/>
<path d="M167.839 11.2614H162.391V25.3974H159.103V11.2614H153.655V8.35742H167.839V11.2614Z" fill="#222222"/>
<path d="M131.189 25.3974V8.35742H134.501V22.4934H139.709V8.35742H143.021V22.4934H148.229V8.35742H151.541V25.3974H131.189Z" fill="#222222"/>
</svg>
