<svg width="13" height="24" viewBox="0 0 13 24" fill="none" xmlns="http://www.w3.org/2000/svg">
<path d="M9.45183 6.41053C9.45183 5.50526 9.15615 4.77895 8.56479 4.23158C7.97342 3.68421 7.19013 3.41053 6.2149 3.41053C5.61316 3.41053 5.06849 3.54211 4.58088 3.80526C4.09326 4.06842 3.67308 4.45263 3.32034 4.95789C2.98835 5.44211 2.53705 5.72105 1.96643 5.79474C1.39582 5.86842 0.90302 5.71579 0.488029 5.33684C0.197536 5.06316 0.0367267 4.72632 0.00560238 4.32632C-0.0255219 3.92632 0.0730384 3.54737 0.301283 3.18947C0.965269 2.17895 1.81081 1.39474 2.83791 0.836842C3.86502 0.278947 4.99068 0 6.2149 0C8.22761 0 9.86163 0.578947 11.117 1.73684C12.3723 2.89474 13 4.41053 13 6.28421C13 7.23158 12.8029 8.08421 12.4086 8.8421C12.0144 9.6 11.2882 10.4947 10.2299 11.5263C9.4622 12.2632 8.94347 12.8368 8.67372 13.2474C8.40398 13.6579 8.22761 14.1263 8.14461 14.6526C8.06161 15.1579 7.84893 15.5789 7.50656 15.9158C7.16419 16.2526 6.75439 16.4211 6.27715 16.4211C5.79991 16.4211 5.39011 16.2579 5.04774 15.9316C4.70537 15.6053 4.53419 15.2 4.53419 14.7158C4.53419 13.8947 4.71056 13.1421 5.0633 12.4579C5.41604 11.7737 6.00741 11.0526 6.83739 10.2947C7.89561 9.34737 8.59591 8.61579 8.93828 8.1C9.28065 7.58421 9.45183 7.02105 9.45183 6.41053ZM6.2149 24C5.53017 24 4.94399 23.7526 4.45638 23.2579C3.96876 22.7632 3.72496 22.1684 3.72496 21.4737C3.72496 20.7789 3.96876 20.1842 4.45638 19.6895C4.94399 19.1947 5.53017 18.9474 6.2149 18.9474C6.89964 18.9474 7.48581 19.1947 7.97342 19.6895C8.46104 20.1842 8.70485 20.7789 8.70485 21.4737C8.70485 22.1684 8.46104 22.7632 7.97342 23.2579C7.48581 23.7526 6.89964 24 6.2149 24Z" fill="white"/>
</svg>
